<svg width="1981" height="867" viewBox="0 0 1981 867" fill="none" xmlns="http://www.w3.org/2000/svg">
<g clip-path="url(#clip0_1_2)">
<path d="M1206.89 435.7C1206.89 676.28 1389.91 866.67 1636.61 866.67C1798.14 866.67 1893.97 809.27 1980.06 717.06L1862.75 598.5C1796.88 658.41 1738.23 696.68 1642.56 696.68C1498.9 696.68 1399.47 577.02 1399.47 433.36V431.01C1399.47 287.36 1501.25 170.04 1642.56 170.04C1726.31 170.04 1792.17 205.95 1856.79 264.61L1974.1 129.27C1896.32 52.72 1801.75 0.03 1643.82 0.03C1386.31 0.03 1206.89 195.12 1206.89 433.35V435.7Z" fill="#20272A"/>
<path d="M473.83 433.32V435.67C473.83 683.46 653.4 866.64 914.37 866.64C1053.32 866.64 1163.73 817.4 1247.32 753.73C1180.51 666.84 1141.62 556.91 1141.62 436.15V433.33C1141.62 411.84 1143.03 390.68 1145.38 369.81H908.41V529.15H1093.79V648.81C1047.21 682.37 987.46 699.15 920.34 699.15C771.98 699.15 666.59 586.55 666.59 433.32V430.97C666.59 288.41 773.08 170 907.17 170C1004.09 170 1061.49 201.05 1126.26 255L1242.47 114.95C1154.94 40.62 1063.98 0 913.11 0C659.36 0 473.82 195.09 473.82 433.32H473.83Z" fill="#20272A"/>
<path d="M205.13 184.29V863.05H389.4V184.29H465.93C506.39 113.87 565.2 55.06 637.03 14.28H0V184.29H205.13Z" fill="#20272A"/>
</g>
<defs>
<clipPath id="clip0_1_2">
<rect width="1980.06" height="866.67" fill="white"/>
</clipPath>
</defs>
</svg>
