<?xml version="1.0" encoding="UTF-8"?>
<svg id="Layer_1" xmlns="http://www.w3.org/2000/svg" baseProfile="tiny" version="1.2" viewBox="0 0 3000 3000">
  <!-- Generator: Adobe Illustrator 30.2.1, SVG Export Plug-In . SVG Version: 2.1.1 Build 1)  -->
  <path d="M1716.5,1502.7c0,240.6,183,431,429.7,431s257.4-57.4,343.5-149.6l-117.3-118.6c-65.9,59.9-124.5,98.2-220.2,98.2-143.7,0-243.1-119.7-243.1-263.3v-2.4c0-143.7,101.8-261,243.1-261s149.6,35.9,214.2,94.6l117.3-135.3c-77.8-76.5-172.4-129.2-330.3-129.2-257.5,0-436.9,195.1-436.9,433.3v2.4Z" fill="#20272a"/>
  <path d="M983.5,1500.3v2.4c0,247.8,179.6,431,440.5,431s249.4-49.2,332.9-112.9c-66.8-86.9-105.7-196.8-105.7-317.6v-2.8c0-21.5,1.4-42.7,3.8-63.5h-237v159.3h185.4v119.7c-46.6,33.6-106.3,50.3-173.5,50.3-148.4,0-253.8-112.6-253.8-265.8v-2.4c0-142.6,106.5-261,240.6-261s154.3,31.1,219.1,85l116.2-140c-87.5-74.3-178.5-115-329.3-115-253.8,0-439.3,195.1-439.3,433.3Z" fill="#20272a"/>
  <path d="M714.8,1251.3v678.8h184.3v-678.8h76.5c40.5-70.4,99.3-129.2,171.1-170H509.6v170h205.1Z" fill="#20272a"/>
</svg>